# xmcd
#
# Track frame offsets: 
#        150
#        12262
#        27900
#        36562
#        49237
#        63787
#        73800
#        88575
#        101587
#        116012
#        125587
#        137887
#
# Disc length: 1954 seconds
#
# Revision: 0
# Processed by: cddbd v1.4b42PL0 Copyright (c) Steve Scherf et al.
# Submitted via: ExactAudioCopy v0.90a11
#
DISCID=ac07a00c
DTITLE=Jimmy Sturr - Polkapalooza
DYEAR=1900
DGENRE=
TTITLE0=Polka Fever
TTITLE1=Celebration Polka
TTITLE2=Alone With You Polka
TTITLE3=Miles Of Smiles Polka
TTITLE4=Lover's Waltz
TTITLE5=Bayou Pon Pon
TTITLE6=Quick Pick Polka
TTITLE7=Pennsylvania Polka
TTITLE8=West Virginia Polka
TTITLE9=O Suzannah Polka
TTITLE10=Silver Dollar Oberek
TTITLE11=Jukebox Polka
EXTD=
EXTT0=
EXTT1=
EXTT2=
EXTT3=
EXTT4=
EXTT5=
EXTT6=
EXTT7=
EXTT8=
EXTT9=
EXTT10=
EXTT11=
PLAYORDER=
